#!OML:ASF E:\Style3\Style3.ASF
:FULLY-SPECIFIED
:DEGREES
4671
root -0.581981 17.888 0.757868 -148.589 83.2141 -160.625
lowerback -2.47422 3.74 0.918565
upperback 0.114119 5.00437 -2.06207
thorax 1.76376 2.52314 -2.42037
lowerneck -2.1728 6.55458 6.96516
upperneck 51.9443 10.7538 15.0327
head 20.4948 8.96295 8.80471
rclavicle -7.78242e-014 -3.18055e-015
rhumerus 7.01263 22.2256 -76.8717
rradius 143.835
rwrist 0.832164
rhand -9.74852 7.51201
rfingers 7.12502
rthumb 16.2258 -21.829
lclavicle -7.78242e-014 -3.18055e-015
lhumerus -17.9528 -37.3822 93.2798
lradius 134.935
lwrist 14.6193
lhand -35.5118 2.39483
lfingers 7.12502
lthumb -8.63869 32.1981
rfemur -10.4809 12.0337 16.3631
rtibia 7.643
rfoot -7.01094 -23.4943
rtoes -21.5185
lfemur 0 0 0
ltibia 0
lfoot 0 0
ltoes 0
4672
root -0.580739 17.8887 0.755589 -148.51 83.1844 -160.526
lowerback -2.51126 3.67636 0.947218
upperback 0.15938 4.9204 -2.10025
thorax 1.83255 2.48268 -2.47485
lowerneck -2.2186 6.36631 6.96031
upperneck 52.1998 10.5381 15.0237
head 20.7348 8.8715 8.86389
rclavicle -2.28602e-014 1.03368e-014
rhumerus 6.78593 21.9855 -77.2604
rradius 143.875
rwrist -0.312375
rhand -8.79121 6.88504
rfingers 7.12502
rthumb 17.1474 -22.3783
lclavicle -2.28602e-014 1.03368e-014
lhumerus -17.8028 -37.2757 93.0101
lradius 135.013
lwrist 14.7666
lhand -35.3989 2.54649
lfingers 7.12502
lthumb -8.5297 32.3542
rfemur -10.469 12.0155 16.3828
rtibia 7.67219
rfoot -7.03958 -23.4842
rtoes -21.459
lfemur 0 0 0
ltibia 0
lfoot 0 0
ltoes 0
4673
root -0.581297 17.888 0.754975 -148.347 83.1197 -160.33
lowerback -2.54487 3.6209 0.94314
upperback 0.231687 4.84713 -2.08775
thorax 1.92043 2.44697 -2.45813
lowerneck -2.82962 6.21687 6.77075
upperneck 52.5619 10.2246 15.2314
head 21.2094 8.73184 9.09066
rclavicle -4.86029e-014 -9.54166e-015
rhumerus 6.56526 21.6897 -77.5144
rradius 143.935
rwrist -1.51918
rhand -7.69363 6.41668
rfingers 7.12502
rthumb 18.2036 -22.7515
lclavicle -4.86029e-014 -9.54166e-015
lhumerus -17.6298 -37.1877 92.8264
lradius 135.054
lwrist 14.8557
lhand -35.2621 2.69801
lfingers 7.12502
lthumb -8.39777 32.5111
rfemur -10.4327 11.9781 16.4512
rtibia 7.68494
rfoot -7.03861 -23.4744
rtoes -21.5939
lfemur 0 0 0
ltibia 0
lfoot 0 0
ltoes 0
4674
root -0.584767 17.8878 0.754502 -148.822 83.0885 -160.807
lowerback -2.53128 3.55497 0.849903
upperback 0.275609 4.76401 -2.12446
thorax 1.94919 2.4055 -2.44731
lowerneck -3.1194 5.92884 6.64246
upperneck 52.9756 9.8325 15.4126
head 21.6976 8.5586 9.35803
rclavicle 4.30369e-014 -1.98785e-014
rhumerus 6.3348 21.398 -77.8089
rradius 143.978
rwrist -2.78668
rhand -6.56204 6.22488
rfingers 7.12502
rthumb 19.292 -22.8382
lclavicle 4.30369e-014 -1.98785e-014
lhumerus -17.4792 -37.1703 92.5948
lradius 135.078
lwrist 14.8085
lhand -35.371 2.69705
lfingers 7.12502
lthumb -8.50281 32.5059
rfemur -10.4081 11.9219 16.4109
rtibia 7.64188
rfoot -6.93818 -23.4527
rtoes -21.7913
lfemur 0 0 0
ltibia 0
lfoot 0 0
ltoes 0
4675
root -0.586596 17.888 0.753057 -148.85 83.0453 -160.842
lowerback -2.54404 3.51601 0.779214
upperback 0.29487 4.71369 -2.09465
thorax 1.96529 2.37947 -2.37846
lowerneck -3.13352 5.64471 6.57075
upperneck 53.131 9.48484 15.3068
head 21.902 8.39376 9.34207
rclavicle 2.78299e-014 -1.59028e-015
rhumerus 6.05541 21.1545 -77.9989
rradius 144.024
rwrist -3.93681
rhand -5.91615 5.63038
rfingers 7.12502
rthumb 19.913 -23.3694
lclavicle 2.78299e-014 -1.59028e-015
lhumerus -17.3858 -37.1144 92.5396
lradius 135.087
lwrist 14.843
lhand -35.4017 2.55079
lfingers 7.12502
lthumb -8.53248 32.3584
rfemur -10.385 11.8833 16.4243
rtibia 7.58695
rfoot -6.85456 -23.4434
rtoes -21.8615
lfemur 0 0 0
ltibia 0
lfoot 0 0
ltoes 0
4676
root -0.586499 17.8878 0.752246 -148.701 82.9828 -160.675
lowerback -2.55336 3.46572 0.77951
upperback 0.32646 4.646 -2.06119
thorax 1.99685 2.34564 -2.34584
lowerneck -3.14686 5.3484 6.4353
upperneck 53.3193 9.15226 15.1719
head 22.1315 8.21765 9.33275
rclavicle 1.8487e-014 1.59028e-015
rhumerus 5.80881 21.0139 -78.2214
rradius 144.045
rwrist -4.83297
rhand -5.75111 5.06675
rfingers 7.12502
rthumb 20.0716 -23.9165
lclavicle 1.8487e-014 1.59028e-015
lhumerus -17.2844 -37.0117 92.4664
lradius 135.143
lwrist 15.0394
lhand -35.2404 2.5534
lfingers 7.12502
lthumb -8.37681 32.3673
rfemur -10.337 11.8451 16.4865
rtibia 7.55494
rfoot -6.82628 -23.4369
rtoes -21.814
lfemur 0 0 0
ltibia 0
lfoot 0 0
ltoes 0
4677
root -0.587486 17.8878 0.751239 -148.547 82.9459 -160.5
lowerback -2.53115 3.40858 0.791578
upperback 0.38361 4.57068 -2.0766
thorax 2.04172 2.30905 -2.37131
lowerneck -3.2521 5.09378 6.36099
upperneck 53.4537 8.80906 15.097
head 22.3552 8.05002 9.34009
rclavicle 1.8487e-014 -1.11319e-014
rhumerus 5.64528 20.8556 -78.5083
rradius 144.024
rwrist -5.62231
rhand -5.33961 4.95996
rfingers 7.12502
rthumb 20.4671 -23.9813
lclavicle 1.8487e-014 -1.11319e-014
lhumerus -17.1309 -36.9198 92.2493
lradius 135.215
lwrist 15.2872
lhand -35.1573 2.55178
lfingers 7.12502
lthumb -8.29659 32.3689
rfemur -10.2733 11.8286 16.5322
rtibia 7.49287
rfoot -6.83749 -23.4395
rtoes -21.7679
lfemur 0 0 0
ltibia 0
lfoot 0 0
ltoes 0
4678
root -0.590075 17.8873 0.750162 -148.454 82.9012 -160.438
lowerback -2.56647 3.37372 0.715531
upperback 0.389995 4.52393 -1.98656
thorax 2.05245 2.28376 -2.23669
lowerneck -3.06089 4.86657 6.08471
upperneck 53.4371 8.51861 15.0595
head 22.2807 7.89057 9.29861
rclavicle -1.19271e-014 8.74653e-015
rhumerus 5.34492 20.6688 -78.6182
rradius 144.038
rwrist -6.32319
rhand -4.66558 4.75192
rfingers 7.12502
rthumb 21.1147 -24.1184
lclavicle -1.19271e-014 8.74653e-015
lhumerus -17.1012 -36.8727 92.3919
lradius 135.205
lwrist 15.2614
lhand -35.2554 2.51442
lfingers 7.12502
lthumb -8.39122 32.3277
rfemur -10.2645 11.798 16.5489
rtibia 7.41367
rfoot -6.78131 -23.4425
rtoes -21.7011
lfemur 0 0 0
ltibia 0
lfoot 0 0
ltoes 0
4679
root -0.591225 17.8877 0.749519 -148.636 82.9016 -160.615
lowerback -2.60933 3.34199 0.583506
upperback 0.413704 4.48419 -1.91377
thorax 2.08288 2.26176 -2.0873
lowerneck -2.82971 4.62383 5.73655
upperneck 53.417 8.18706 15.1108
head 22.1792 7.71351 9.30666
rclavicle -1.82882e-014 -1.27222e-014
rhumerus 5.00036 20.5299 -78.7992
rradius 144.031
rwrist -6.80966
rhand -4.09417 4.53332
rfingers 7.12502
rthumb 21.6635 -24.2747
lclavicle -1.82882e-014 -1.27222e-014
lhumerus -17.1708 -36.8064 92.5794
lradius 135.17
lwrist 15.1163
lhand -35.278 2.54663
lfingers 7.12502
lthumb -8.41305 32.3591
rfemur -10.217 11.7886 16.5275
rtibia 7.33282
rfoot -6.71012 -23.4549
rtoes -21.8106
lfemur 0 0 0
ltibia 0
lfoot 0 0
ltoes 0
4680
root -0.592684 17.8886 0.747575 -148.63 82.9044 -160.601
lowerback -2.62396 3.28472 0.58601
upperback 0.453565 4.4102 -1.96724
thorax 2.13337 2.22602 -2.14474
lowerneck -2.69162 4.42548 5.50171
upperneck 53.3409 7.8472 15.1975
head 22.0773 7.55082 9.31079
rclavicle 4.69132e-014 -5.56597e-015
rhumerus 4.69063 20.3927 -79.2818
rradius 144.065
rwrist -7.1261
rhand -3.38579 4.3696
rfingers 7.12502
rthumb 22.3437 -24.3584
lclavicle 4.69132e-014 -5.56597e-015
lhumerus -17.1136 -36.7465 92.4373
lradius 135.139
lwrist 15.116
lhand -35.1428 2.52944
lfingers 7.12502
lthumb -8.28258 32.3471
rfemur -10.1925 11.7917 16.5163
rtibia 7.29356
rfoot -6.77159 -23.4425
rtoes -21.6209
lfemur 0 0 0
ltibia 0
lfoot 0 0
ltoes 0
4681
root -0.593327 17.8892 0.746894 -148.456 82.8814 -160.413
lowerback -2.60829 3.21271 0.626138
upperback 0.494034 4.31634 -2.05359
thorax 2.17185 2.18129 -2.25971
lowerneck -2.64762 4.20432 5.52569
upperneck 53.3051 7.50574 15.0662
head 22.1029 7.40318 9.18591
rclavicle -2.40529e-014 3.18055e-015
rhumerus 4.44264 20.2241 -79.8646
rradius 144.115
rwrist -7.34856
rhand -2.55638 4.04094
rfingers 7.12502
rthumb 23.1397 -24.5894
lclavicle -2.40529e-014 3.18055e-015
lhumerus -17.0218 -36.7093 92.1821
lradius 135.116
lwrist 15.135
lhand -35.1315 2.28369
lfingers 7.12502
lthumb -8.27171 32.1018
rfemur -10.1682 11.7865 16.5484
rtibia 7.26774
rfoot -6.7312 -23.4478
rtoes -21.8244
lfemur 0 0 0
ltibia 0
lfoot 0 0
ltoes 0
4682
root -0.591933 17.8882 0.746045 -148.335 82.9433 -160.267
lowerback -2.62169 3.18027 0.562742
upperback 0.527455 4.27738 -2.09466
thorax 2.21047 2.16205 -2.26658
lowerneck -2.77534 3.9495 5.41623
upperneck 53.5174 7.16985 15.0724
head 22.404 7.23889 9.27594
rclavicle -8.15017e-015 -2.46493e-014
rhumerus 4.19316 20.0114 -80.3687
rradius 144.105
rwrist -7.56431
rhand -1.78534 3.84399
rfingers 7.12502
rthumb 23.8793 -24.6915
lclavicle -8.15017e-015 -2.46493e-014
lhumerus -17.0411 -36.7247 92.101
lradius 135.148
lwrist 15.0939
lhand -35.2233 2.10163
lfingers 7.12502
lthumb -8.36023 31.9162
rfemur -10.1378 11.8503 16.5276
rtibia 7.2525
rfoot -6.72356 -23.454
rtoes -21.7375
lfemur 0 0 0
ltibia 0
lfoot 0 0
ltoes 0
4683
root -0.587986 17.8864 0.742945 -147.914 83.0895 -159.798
lowerback -2.66848 3.18928 0.498342
upperback 0.577628 4.29282 -2.0942
thorax 2.28424 2.16958 -2.22501
lowerneck -3.07416 3.69638 5.00258
upperneck 53.8692 6.83959 15.3356
head 22.8697 7.03544 9.64668
rclavicle -9.74045e-014 6.12257e-014
rhumerus 3.91264 19.7219 -80.8381
rradius 144.096
rwrist -8.0088
rhand -0.710872 3.72524
rfingers 7.12502
rthumb 24.9093 -24.6716
lclavicle -9.74045e-014 6.12257e-014
lhumerus -17.0961 -36.7493 92.1505
lradius 135.174
lwrist 14.8777
lhand -35.3598 2.23388
lfingers 7.12502
lthumb -8.49201 32.0431
rfemur -10.1087 12.0055 16.488
rtibia 7.25753
rfoot -6.72058 -23.4644
rtoes -21.7798
lfemur 0 0 0
ltibia 0
lfoot 0 0
ltoes 0
